<svg width="256" height="68" viewBox="0 0 256 68" fill="none" xmlns="http://www.w3.org/2000/svg">
<path d="M99.1903 26.5797H104.819V32.9136H99.4084V49.8633H91.1182V32.9136H87.6712V26.5797H91.1182V25.9552C91.1182 23.0113 91.9763 20.677 93.6925 18.9523C95.4379 17.2276 97.8667 16.3652 100.979 16.3652C102.026 16.3652 103.044 16.4693 104.033 16.6775C105.022 16.8856 105.837 17.1979 106.477 17.6142L104.426 23.5912C103.612 23.1154 102.783 22.8775 101.939 22.8775C101.066 22.8775 100.383 23.1451 99.8884 23.6804C99.423 24.2157 99.1903 25.0037 99.1903 26.0444V26.5797Z" fill="black"/>
<path d="M120.369 50.2648C117.838 50.2648 115.555 49.7295 113.519 48.659C111.483 47.5885 109.883 46.1017 108.719 44.1985C107.585 42.2954 107.018 40.1395 107.018 37.7309C107.018 35.352 107.585 33.2109 108.719 31.3078C109.883 29.4047 111.468 27.9327 113.475 26.8919C115.511 25.8214 117.809 25.2862 120.369 25.2862C122.929 25.2862 125.227 25.8214 127.263 26.8919C129.299 27.9327 130.885 29.4047 132.019 31.3078C133.154 33.1812 133.721 35.3222 133.721 37.7309C133.721 40.1395 133.154 42.2954 132.019 44.1985C130.885 46.1017 129.299 47.5885 127.263 48.659C125.227 49.7295 122.929 50.2648 120.369 50.2648ZM120.369 43.5295C121.824 43.5295 123.016 43.024 123.947 42.0129C124.878 40.9721 125.343 39.5448 125.343 37.7309C125.343 35.9467 124.878 34.5491 123.947 33.538C123.016 32.527 121.824 32.0215 120.369 32.0215C118.915 32.0215 117.722 32.527 116.791 33.538C115.86 34.5491 115.395 35.9467 115.395 37.7309C115.395 39.5448 115.86 40.9721 116.791 42.0129C117.722 43.024 118.915 43.5295 120.369 43.5295Z" fill="black"/>
<path d="M150.302 50.2648C147.771 50.2648 145.488 49.7295 143.452 48.659C141.415 47.5885 139.815 46.1017 138.652 44.1985C137.517 42.2954 136.95 40.1395 136.95 37.7309C136.95 35.352 137.517 33.2109 138.652 31.3078C139.815 29.4047 141.401 27.9327 143.408 26.8919C145.444 25.8214 147.742 25.2862 150.302 25.2862C152.862 25.2862 155.16 25.8214 157.196 26.8919C159.232 27.9327 160.817 29.4047 161.952 31.3078C163.086 33.1812 163.653 35.3222 163.653 37.7309C163.653 40.1395 163.086 42.2954 161.952 44.1985C160.817 46.1017 159.232 47.5885 157.196 48.659C155.16 49.7295 152.862 50.2648 150.302 50.2648ZM150.302 43.5295C151.756 43.5295 152.949 43.024 153.88 42.0129C154.811 40.9721 155.276 39.5448 155.276 37.7309C155.276 35.9467 154.811 34.5491 153.88 33.538C152.949 32.527 151.756 32.0215 150.302 32.0215C148.847 32.0215 147.655 32.527 146.724 33.538C145.793 34.5491 145.328 35.9467 145.328 37.7309C145.328 39.5448 145.793 40.9721 146.724 42.0129C147.655 43.024 148.847 43.5295 150.302 43.5295Z" fill="black"/>
<path d="M193.499 16.7667V49.8633H185.601V47.4547C184.06 49.3281 181.747 50.2648 178.664 50.2648C176.511 50.2648 174.548 49.7593 172.773 48.7482C170.999 47.7074 169.588 46.2355 168.541 44.3324C167.523 42.4292 167.014 40.2287 167.014 37.7309C167.014 35.233 167.523 33.0474 168.541 31.174C169.588 29.2709 170.999 27.8138 172.773 26.8027C174.548 25.7917 176.511 25.2862 178.664 25.2862C181.485 25.2862 183.667 26.1188 185.209 27.784V16.7667H193.499ZM180.409 43.5295C181.834 43.5295 183.013 43.024 183.943 42.0129C184.874 40.9721 185.34 39.5448 185.34 37.7309C185.34 35.9467 184.874 34.5491 183.943 33.538C183.042 32.527 181.864 32.0215 180.409 32.0215C178.955 32.0215 177.762 32.527 176.831 33.538C175.9 34.5491 175.435 35.9467 175.435 37.7309C175.435 39.5448 175.9 40.9721 176.831 42.0129C177.762 43.024 178.955 43.5295 180.409 43.5295Z" fill="black"/>
<path d="M227.325 43.8863H222.787V49.8633H214.366V43.8863H198.222V38.1323L211.922 18.6401H220.867L208.432 36.8834H214.628V31.5754H222.787V36.8834H227.325V43.8863Z" fill="black"/>
<path d="M256 25.6876V49.8633H248.102V47.2763C247.23 48.2576 246.183 49.001 244.961 49.5065C243.739 50.012 242.445 50.2648 241.078 50.2648C238.023 50.2648 235.58 49.3429 233.747 47.4993C231.944 45.6556 231.042 42.8901 231.042 39.2028V25.6876H239.332V37.8201C239.332 39.634 239.667 40.9573 240.336 41.7899C241.005 42.6225 241.979 43.0388 243.259 43.0388C244.568 43.0388 245.63 42.5779 246.444 41.6561C247.288 40.7045 247.71 39.2623 247.71 37.3294V25.6876H256Z" fill="black"/>
<path fill-rule="evenodd" clip-rule="evenodd" d="M22.0874 57.9379C29.487 60.5665 36.8201 55.5115 43.4673 51.3514C48.9881 47.8962 53.5737 43.3641 55.3709 37.1076C57.3359 30.267 57.6654 22.5859 53.3626 16.9031C48.9208 11.0367 41.3318 8.61649 33.9772 8.85222C26.8659 9.08016 20.6453 12.7792 15.94 18.1026C10.7979 23.9201 6.47181 30.9535 7.65654 38.6305C8.94462 46.9772 14.1183 55.1071 22.0874 57.9379Z" fill="white" stroke="#E8E8E8" stroke-width="4.6758"/>
<path fill-rule="evenodd" clip-rule="evenodd" d="M37.5968 17.4135C42.3011 19.6041 45.691 24.1173 45.1637 29.0386C44.6291 34.0271 40.4627 37.7603 35.3391 38.481C30.5454 39.1553 26.0591 36.2482 23.6278 32.0679C21.1859 27.8693 20.9073 22.6684 24.1586 19.2575C27.5008 15.7513 32.9906 15.2686 37.5968 17.4135Z" fill="#FFD02B" stroke="#F9CA25" stroke-width="4.6758"/>
</svg>
